<svg xmlns="http://www.w3.org/2000/svg" xmlns:xlink="http://www.w3.org/1999/xlink" width="500" height="500" viewBox="0 0 500 500">
  <defs>
    <style>
      .cls-1 {
        fill-rule: evenodd;
        fill: url(#linear-gradient);
      }
    </style>
    <linearGradient id="linear-gradient" x1="250" y1="500" x2="250" gradientUnits="userSpaceOnUse">
      <stop offset="0" stop-color="#0040c7"/>
      <stop offset="1" stop-color="#149df3"/>
    </linearGradient>
  </defs>
  <path id="Gradient_Fill_1" data-name="Gradient Fill 1" class="cls-1" d="M259.677,1.422c-0.317-.227-0.008,45.725.508,45.725-0.242,0-16.808.508-17.274,0.508-0.082-17.238.206-32.52,0.057-45.815C244.006,1.736,258.639,1.526,259.677,1.422Zm-85.4,29.215c3.028,1.493,33.01,31.474,33.957,34.09-3.7,3.734-7.285,9.614-12.15,11.986L185.646,66.44,163.372,43.246C165.21,38.73,170.891,33.966,174.275,30.638Zm153.117,0.778c2.485,1.257,11.02,9.02,11.994,11.519-10.425,10.139-22.1,22.872-32.866,33.934-2.4-.765-7.278-7.508-11.279-13.464C299.645,57.584,304.021,55.161,327.392,31.416Zm-81,40.316c28.717-.367,46.627,12.012,55.141,31.755,15.528,36-8.565,71.7-38.785,77.519-42.791,8.243-79.308-31.825-63.552-73.472a55.192,55.192,0,0,1,31.464-32.066Zm4.05,428.069c1.961,2.694-8.145-22.4-13.707-37.515l-31.932-86.859q-4.361-12.374-8.723-24.75-2.18-5.681-4.361-11.363c-1.778-2.168-13.63-3.916-17.134-4.981-12.6-3.83-24.558-8.567-35.047-14.632-40.2-23.248-66.516-58.082-77.26-110.987-2.508-12.352-4.438-30.254-2.492-44.83,3.988-1.257,11.337-.739,15.732-0.156l16.355,0.934a226.747,226.747,0,0,1,32.087,7.316c28.086,8.731,52.373,22.774,67.6,44.363,16.647,23.6,25.172,57.014,36.138,85.77q7.63,20.624,15.265,41.25c2.059,5.385,3.39,13.973,7.165,17.9,3.283-2.244,12.137-30.735,14.486-36.736l22.586-60.241c5.654-14.415,10.66-28.787,18.224-41.25,18.4-30.313,51.223-46.876,90.656-56.194,8.729-2.063,18.189-2.254,27.882-3.58l12.461-.623,5.919,0.156c1.37,2.789.319,7.269,0.779,11.052,1.646,13.535-1.378,31.341-3.894,42.5-11.061,49.028-40.063,83.565-78.506,105.383a145.642,145.642,0,0,1-31,12.764c-4.742,1.365-16.844,2.427-19.938,5.137q-1.4,3.191-2.8,6.382c-39.8,111.01-54.752,154.029-56.543,153.794M111.813,218.209l-0.623.467c-0.053,5.062,2.737,9.3,4.362,13.076,9.182,21.354,22.662,36.7,41.433,48.411,4.73,2.95,15.014,9.976,21.5,10.118l0.311-.312c-0.1-8.032-5.5-16.513-8.567-22.571-10.8-21.305-23.057-31.319-43.458-42.962C122.568,222.04,117.418,218.833,111.813,218.209Zm277.418,0c-26.614,12.207-42.37,22.958-56.543,47.633-2.336,4.067-10.623,19.174-9.5,24.594,5.228-.019,9.783-3.229,13.551-5.137,19.922-10.088,33.587-23.6,44.549-42.651,1.826-3.173,11.406-21.808,9.5-24.439h-1.558ZM243.42,1.422"/>
</svg>
