<svg xmlns="http://www.w3.org/2000/svg" xmlns:xlink="http://www.w3.org/1999/xlink" width="500" height="150" viewBox="0 0 500 150">
  <defs>
    <style>
      .cls-1 {
        fill-rule: evenodd;
        fill: url(#linear-gradient);
      }
    </style>
    <linearGradient id="linear-gradient" x1="248.719" y1="141.594" x2="248.719" y2="4.938" gradientUnits="userSpaceOnUse">
      <stop offset="0" stop-color="#0040c7"/>
      <stop offset="1" stop-color="#149df3"/>
    </linearGradient>
  </defs>
  <path id="Gradient_Fill_1" data-name="Gradient Fill 1" class="cls-1" d="M2.159,31.01H23.023L44.407,99.337,66.314,31.01H86.655L55.36,119.678H33.976Zm110.054,0h20.341l32.86,88.668H144.55l-6.78-20.341-31.3.522-6.259,19.82H79.875Q96.042,75.349,112.213,31.01Zm63.632,0L194.1,31.532l38.6,60.5q-0.261-30.509-.521-61.025h18.255v88.668l-18.255-.521-38.6-61.025q0.261,30.77.521,61.546H175.845V31.01Zm93.363,0h19.82v88.668h-19.82V31.01Zm43.68-.522c0.023,0.387,18.947-25.557,18.777-25.557,0.362,26.2-.522,84.231-0.522,107.445-0.379,8.773.024,16.85-7.3,23.471-9.651,8.269-16.962,6.527-27.644,1.565,0-4.1-.433-10.654-0.521-13.039,2.323,4,16.852,3.012,16.69-6.259C312.757,113.957,312.54,60.389,312.888,30.488Zm153.183,89.19h-19.3c0-12.169-.522-24.341-0.522-36.51-10.083-17.384-20.69-34.774-30.773-52.158h21.906c6.085,11.126,13.736,22.255,19.821,33.381h0.521c6.085-11.126,10.606-22.255,16.691-33.381H495.28c-10.257,17.21-18.952,34.426-29.209,51.636v37.032ZM122.123,51.873L111.691,84.211v0.522h21.385Q127.6,68.3,122.123,51.873Zm-9.91-20.863h20.341l32.86,88.668H144.55l-6.78-20.341-31.3.522-6.259,19.82H79.875Q96.042,75.349,112.213,31.01Zm9.91,20.863L111.691,84.211v0.522h21.385Q127.6,68.3,122.123,51.873Zm-9.91-20.863h20.341l32.86,88.668H144.55l-6.78-20.341-31.3.522-6.259,19.82H79.875Q96.042,75.349,112.213,31.01Zm9.91,20.863L111.691,84.211v0.522h21.385Q127.6,68.3,122.123,51.873Zm-9.91-20.863h20.341l32.86,88.668H144.55l-6.78-20.341-31.3.522-6.259,19.82H79.875Q96.042,75.349,112.213,31.01Zm9.91,20.863L111.691,84.211v0.522h21.385Q127.6,68.3,122.123,51.873Zm-9.91-20.863h20.341l32.86,88.668H144.55l-6.78-20.341-31.3.522-6.259,19.82H79.875Q96.042,75.349,112.213,31.01Zm9.91,20.863L111.691,84.211v0.522h21.385Q127.6,68.3,122.123,51.873Zm-9.91-20.863h20.341l32.86,88.668H144.55l-6.78-20.341-31.3.522-6.259,19.82H79.875Q96.042,75.349,112.213,31.01Zm9.91,20.863L111.691,84.211v0.522h21.385Q127.6,68.3,122.123,51.873ZM79.875,119.678Q96.042,75.349,112.213,31.01h20.341l32.86,88.668H144.55l-6.78-20.341-31.3.522-6.259,19.82H79.875m42.248-67.805L111.691,84.211v0.522h21.385Q127.6,68.3,122.123,51.873ZM79.875,119.678Q96.042,75.349,112.213,31.01h20.341l32.86,88.668H144.55l-6.78-20.341-31.3.522-6.259,19.82H79.875m42.248-67.805L111.691,84.211v0.522h21.385Q127.6,68.3,122.123,51.873ZM79.875,119.678Q96.042,75.349,112.213,31.01h20.341l32.86,88.668H144.55l-6.78-20.341-31.3.522-6.259,19.82H79.875m42.248-67.805L111.691,84.211v0.522h21.385Q127.6,68.3,122.123,51.873ZM79.875,119.678Q96.042,75.349,112.213,31.01h20.341l32.86,88.668H144.55l-6.78-20.341-31.3.522-6.259,19.82H79.875m42.248-67.805L111.691,84.211v0.522h21.385Q127.6,68.3,122.123,51.873Zm-9.91-20.863h20.341l32.86,88.668H144.55l-6.78-20.341-31.3.522-6.259,19.82H79.875Q96.042,75.349,112.213,31.01Zm9.91,20.863L111.691,84.211v0.522h21.385Q127.6,68.3,122.123,51.873ZM373.977,31.01h20.342l32.859,88.668H406.315l-6.781-20.341-31.294.522-6.259,19.82H341.639Zm9.91,20.863L373.455,84.211v0.522H394.84Q389.364,68.3,383.887,51.873Zm-42.248,67.805L373.977,31.01h20.342l32.859,88.668H406.315l-6.781-20.341-31.294.522-6.259,19.82H341.639m42.248-67.805L373.455,84.211v0.522H394.84Q389.364,68.3,383.887,51.873Zm-42.248,67.805L373.977,31.01h20.342l32.859,88.668H406.315l-6.781-20.341-31.294.522-6.259,19.82H341.639m42.248-67.805L373.455,84.211v0.522H394.84Q389.364,68.3,383.887,51.873Zm-42.248,67.805L373.977,31.01h20.342l32.859,88.668H406.315l-6.781-20.341-31.294.522-6.259,19.82H341.639m42.248-67.805L373.455,84.211v0.522H394.84Q389.364,68.3,383.887,51.873Zm-42.248,67.805L373.977,31.01h20.342l32.859,88.668H406.315l-6.781-20.341-31.294.522-6.259,19.82H341.639m42.248-67.805L373.455,84.211v0.522H394.84Q389.364,68.3,383.887,51.873Zm-9.91-20.863h20.342l32.859,88.668H406.315l-6.781-20.341-31.294.522-6.259,19.82H341.639Zm9.91,20.863L373.455,84.211v0.522H394.84Q389.364,68.3,383.887,51.873Zm-9.91-20.863h20.342l32.859,88.668H406.315l-6.781-20.341-31.294.522-6.259,19.82H341.639Zm9.91,20.863L373.455,84.211v0.522H394.84Q389.364,68.3,383.887,51.873Z"/>
</svg>
